<svg width="17" height="16" viewBox="0 0 17 16" fill="none" xmlns="http://www.w3.org/2000/svg">
<path d="M7.50001 16C7.21668 16 6.97901 15.904 6.78701 15.712C6.59501 15.52 6.49934 15.2827 6.50001 15V9L0.700009 1.6C0.450009 1.26667 0.412343 0.916667 0.587009 0.55C0.761676 0.183334 1.06601 0 1.50001 0H15.5C15.9333 0 16.2377 0.183334 16.413 0.55C16.5883 0.916667 16.5507 1.26667 16.3 1.6L10.5 9V15C10.5 15.2833 10.404 15.521 10.212 15.713C10.02 15.905 9.78268 16.0007 9.50001 16H7.50001Z" fill="white"/>
</svg>
