<svg width="11" height="11" viewBox="0 0 11 11" fill="none" xmlns="http://www.w3.org/2000/svg">
<path d="M7.9375 0.21875V1.03125H9.38496L8.01387 2.41494C7.52379 2.04489 6.92659 1.84439 6.3125 1.84375C5.55281 1.84375 4.8435 2.14437 4.30643 2.68184C4.04097 2.94411 3.8302 3.25647 3.68637 3.60081C3.54253 3.94515 3.46849 4.31462 3.46853 4.68779C3.46856 5.06096 3.54268 5.43041 3.68659 5.77472C3.83049 6.11903 4.04132 6.43135 4.30684 6.69356C4.66028 7.047 5.08115 7.30091 5.55078 7.42969C5.59709 7.39434 5.64909 7.35737 5.69053 7.31594C5.86081 7.14275 5.98316 6.92828 6.04559 6.69356C5.60331 6.63896 5.19209 6.43772 4.87762 6.12197C4.49412 5.73887 4.28125 5.23025 4.28125 4.6875C4.28125 4.14475 4.49453 3.63694 4.87843 3.25344C5.26112 2.86872 5.76975 2.65625 6.3125 2.65625C6.85525 2.65625 7.36347 2.86953 7.74656 3.25344C7.93611 3.44101 8.08651 3.66437 8.18903 3.91055C8.29155 4.15673 8.34414 4.42083 8.34375 4.6875C8.34375 5.03891 8.24422 5.36594 8.07725 5.66494C8.11625 5.87456 8.14062 6.09475 8.14062 6.3125C8.14062 6.51481 8.12356 6.71469 8.08984 6.90969C8.17109 6.84347 8.2434 6.76831 8.31856 6.69356C8.85562 6.15569 9.15625 5.44719 9.15625 4.6875C9.15625 4.06594 8.9515 3.47525 8.58506 2.98612L9.96875 1.61544V3.0625H10.7812V0.21875H7.9375ZM5.44922 3.57031C5.4029 3.60566 5.3509 3.64262 5.30947 3.68406C5.13397 3.86037 5.0194 4.07406 4.9544 4.30684C5.39722 4.36372 5.80143 4.55709 6.12237 4.87803C6.50628 5.26113 6.71956 5.76975 6.71956 6.31209C6.71956 6.85444 6.50628 7.36266 6.12237 7.74616C5.73887 8.13128 5.23025 8.34375 4.6875 8.34375C4.14475 8.34375 3.63653 8.13047 3.25343 7.74656C3.06374 7.5591 2.91324 7.33576 2.81071 7.08955C2.70818 6.84335 2.65568 6.5792 2.65625 6.3125C2.65625 5.96109 2.75578 5.63406 2.92275 5.33506C2.88196 5.12159 2.86074 4.90483 2.85937 4.6875C2.85937 4.48519 2.87643 4.28531 2.91015 4.09031C2.8289 4.15653 2.757 4.23169 2.68143 4.30684C2.14518 4.8435 1.84375 5.55281 1.84375 6.3125C1.84375 6.93406 2.0485 7.52475 2.41493 8.01388L1.73 8.69922L0.917497 7.88672L0.332497 8.45791L1.145 9.27041L0.332497 10.0829L0.917497 10.6679L1.73 9.85541L2.5425 10.6679L3.11328 10.0829L2.30078 9.27041L2.98653 8.58547C3.47612 8.95609 4.07344 9.15653 4.6875 9.15625C5.44718 9.15625 6.1565 8.85563 6.69356 8.31816C7.23062 7.7815 7.53125 7.07219 7.53125 6.3125C7.53125 5.55281 7.23062 4.84431 6.69315 4.30644C6.33972 3.953 5.91884 3.69909 5.44922 3.57031Z" fill="#C0C0C0"/>
</svg>
