<svg width="9" height="11" viewBox="0 0 9 11" fill="none" xmlns="http://www.w3.org/2000/svg">
<path d="M4.5 5.49999C4.79792 5.49999 5.05304 5.39383 5.26538 5.18149C5.47771 4.96916 5.5837 4.71422 5.58333 4.41666C5.58333 4.11874 5.47717 3.86362 5.26483 3.65129C5.0525 3.43895 4.79756 3.33297 4.5 3.33333C4.20208 3.33333 3.94696 3.43949 3.73463 3.65183C3.52229 3.86416 3.41631 4.11911 3.41667 4.41666C3.41667 4.71458 3.52283 4.9697 3.73517 5.18204C3.9475 5.39437 4.20245 5.50036 4.5 5.49999ZM4.5 10.7135C4.42778 10.7135 4.35556 10.7 4.28333 10.6729C4.21111 10.6458 4.14792 10.6097 4.09375 10.5646C2.7757 9.39999 1.79167 8.31883 1.14167 7.32108C0.491668 6.32333 0.166668 5.3913 0.166668 4.52499C0.166668 3.17083 0.602349 2.09201 1.47371 1.28854C2.34507 0.485064 3.35383 0.0833282 4.5 0.0833282C5.64653 0.0833282 6.65547 0.485064 7.52683 1.28854C8.3982 2.09201 8.8337 3.17083 8.83333 4.52499C8.83333 5.39166 8.50834 6.32387 7.85834 7.32162C7.20834 8.31937 6.22431 9.40036 4.90625 10.5646C4.85208 10.6097 4.78889 10.6458 4.71667 10.6729C4.64445 10.7 4.57222 10.7135 4.5 10.7135Z" fill="#C0C0C0"/>
</svg>
