<svg width="35" height="29" viewBox="0 0 35 29" fill="none" xmlns="http://www.w3.org/2000/svg">
<path d="M23.6667 18.0833C22.1736 18.0833 20.9045 17.5608 19.8594 16.5156C18.8142 15.4705 18.2917 14.2014 18.2917 12.7083C18.2917 11.2153 18.8142 9.94619 19.8594 8.90105C20.9045 7.85591 22.1736 7.33334 23.6667 7.33334C25.1597 7.33334 26.4288 7.85591 27.474 8.90105C28.5191 9.94619 29.0417 11.2153 29.0417 12.7083C29.0417 14.2014 28.5191 15.4705 27.474 16.5156C26.4288 17.5608 25.1597 18.0833 23.6667 18.0833ZM12.9167 28.8333V25.4292C12.9167 24.8021 13.066 24.2049 13.3646 23.6375C13.6632 23.0701 14.0813 22.6222 14.6188 22.2938C15.9625 21.4875 17.3887 20.8831 18.8973 20.4806C20.4058 20.0781 21.9956 19.8762 23.6667 19.875C25.3389 19.875 26.9293 20.0769 28.4379 20.4806C29.9465 20.8843 31.372 21.4887 32.7146 22.2938C33.2521 22.6222 33.6701 23.0701 33.9688 23.6375C34.2674 24.2049 34.4167 24.8021 34.4167 25.4292V28.8333H12.9167ZM0.375 18.0833V14.5H14.7083V18.0833H0.375ZM0.375 3.75001V0.166672H21.875V3.75001H0.375ZM14.8875 10.9167H0.375V7.33334H16.5C16.0819 7.84098 15.7457 8.39341 15.4913 8.99063C15.2369 9.58785 15.0356 10.2299 14.8875 10.9167Z" fill="black"/>
</svg>
