<svg width="16" height="4" viewBox="0 0 16 4" fill="none" xmlns="http://www.w3.org/2000/svg">
<path d="M2 4C1.45 4 0.979002 3.804 0.587002 3.412C0.195002 3.02 -0.000664969 2.54934 1.69779e-06 2C1.69779e-06 1.45 0.196001 0.979002 0.588001 0.587002C0.980001 0.195002 1.45067 -0.000664969 2 1.69779e-06C2.55 1.69779e-06 3.021 0.196002 3.413 0.588002C3.805 0.980002 4.00067 1.45067 4 2C4 2.55 3.804 3.021 3.412 3.413C3.02 3.805 2.54934 4.00067 2 4ZM8 4C7.45 4 6.979 3.804 6.587 3.412C6.195 3.02 5.99934 2.54934 6 2C6 1.45 6.196 0.979002 6.588 0.587002C6.98 0.195002 7.45067 -0.000664969 8 1.69779e-06C8.55 1.69779e-06 9.021 0.196002 9.413 0.588002C9.805 0.980002 10.0007 1.45067 10 2C10 2.55 9.804 3.021 9.412 3.413C9.02 3.805 8.54934 4.00067 8 4ZM14 4C13.45 4 12.979 3.804 12.587 3.412C12.195 3.02 11.9993 2.54934 12 2C12 1.45 12.196 0.979002 12.588 0.587002C12.98 0.195002 13.4507 -0.000664969 14 1.69779e-06C14.55 1.69779e-06 15.021 0.196002 15.413 0.588002C15.805 0.980002 16.0007 1.45067 16 2C16 2.55 15.804 3.021 15.412 3.413C15.02 3.805 14.5493 4.00067 14 4Z" fill="white"/>
</svg>
